HIERARCHY
ROOT Hips
{
	OFFSET 0.000000 8.830580 0.000000
	CHANNELS 6 Xposition Yposition Zposition Zrotation Yrotation Xrotation 
	JOINT Spine
	{
		OFFSET 0.000000 0.010000 0.000000
		CHANNELS 3 Zrotation Yrotation Xrotation
		JOINT Spine1
		{
			OFFSET 0.000000 2.459130 0.000000
			CHANNELS 3 Zrotation Yrotation Xrotation
			JOINT Neck
			{
				OFFSET 0.000000 2.484630 0.000000
				CHANNELS 3 Zrotation Yrotation Xrotation
				JOINT Head_virtual
				{
					OFFSET 0.000000 0.000000 0.000000
					CHANNELS 3 Zrotation Yrotation Xrotation
					JOINT Head
					{
						OFFSET 0.000000 0.927525 0.000000
						CHANNELS 3 Zrotation Yrotation Xrotation
						End Site
						{
							OFFSET 0.000000 0.000000 0.000000
						}
					}
				}
				JOINT LeftUpArm_virtual
				{
					OFFSET 0.000000 0.000000 0.000000
					CHANNELS 3 Zrotation Yrotation Xrotation
					JOINT LeftUpArm
					{
						OFFSET 1.248820 0.000000 0.000000
						CHANNELS 3 Zrotation Yrotation Xrotation
						JOINT LeftForeArm
						{
							OFFSET 2.597580 0.000000 0.000000
							CHANNELS 3 Zrotation Yrotation Xrotation
							JOINT LeftHand
							{
								OFFSET 2.455420 0.000000 0.000000
								CHANNELS 3 Zrotation Yrotation Xrotation
								End Site
								{
									OFFSET 0.000000 0.000000 0.000000
								}
							}
						}
					}
				}
				JOINT RightUpArm_virtual
				{
					OFFSET -0.000000 -0.000000 -0.000000
					CHANNELS 3 Zrotation Yrotation Xrotation
					JOINT RightUpArm
					{
						OFFSET -1.248820 -0.000000 -0.000000
						CHANNELS 3 Zrotation Yrotation Xrotation
						JOINT RightForeArm
						{
							OFFSET -2.597580 -0.000000 -0.000000
							CHANNELS 3 Zrotation Yrotation Xrotation
							JOINT RightHand
							{
								OFFSET -2.455420 -0.000000 -0.000000
								CHANNELS 3 Zrotation Yrotation Xrotation
								End Site
								{
									OFFSET 0.000000 0.000000 0.000000
								}
							}
						}
					}
				}
			}
		}
	}
	JOINT LeftUpLeg
	{
		OFFSET 1.271939 0.000000 0.000000
		CHANNELS 3 Zrotation Yrotation Xrotation
		JOINT LeftLowLeg
		{
			OFFSET 0.000000 -4.342910 0.000000
			CHANNELS 3 Zrotation Yrotation Xrotation
			JOINT LeftFoot
			{
				OFFSET 0.000000 -4.487670 0.000000
				CHANNELS 3 Zrotation Yrotation Xrotation
				JOINT LeftToeBase
				{
					OFFSET 0.000000 0.000000 1.515070
					CHANNELS 3 Zrotation Yrotation Xrotation
					End Site
					{
						OFFSET 0.000000 0.000000 0.000000
					}
				}
			}
		}
	}
	JOINT RightUpLeg
	{
		OFFSET -1.271939 0.000000 0.000000
		CHANNELS 3 Zrotation Yrotation Xrotation
		JOINT RightLowLeg
		{
			OFFSET 0.000000 -4.342910 0.000000
			CHANNELS 3 Zrotation Yrotation Xrotation
			JOINT RightFoot
			{
				OFFSET 0.000000 -4.487670 0.000000
				CHANNELS 3 Zrotation Yrotation Xrotation
				JOINT RightToeBase
				{
					OFFSET 0.000000 0.000000 1.515070
					CHANNELS 3 Zrotation Yrotation Xrotation
					End Site
					{
						OFFSET 0.000000 0.000000 0.000000
					}
				}
			}
		}
	}
}
MOTION
Frames: 7
Frame Time: 0.041667
-18.949625 9.217524 43.900838 -175.605383 -2.223323 -174.338227 3.417160 -2.712077 -7.271078 -1.255801 -2.902479 3.781158 0.000000 0.000000 0.000000 -4.300610 -0.588339 -13.523121 10.343574 6.600605 -52.604637 1.463640 17.756701 -4.318850 -7.864080 -7.542040 -31.830601 0.000000 -21.389999 0.000000 30.775299 7.609950 19.882900 6.791360 -12.066700 -1.583880 6.941520 3.292420 -37.860500 0.000000 21.821199 0.000000 -19.703501 -3.409980 27.146299 5.037883 -0.060152 -4.385313 0.000000 0.000000 6.422280 -6.229592 -1.043833 6.901711 0.000000 0.000000 -20.185050 1.912259 7.884227 -2.948930 0.000000 0.000000 6.319800 7.748055 -5.791582 9.558213 0.000000 0.000000 -28.092400 
-18.949540 9.217540 43.901192 -175.605393 -2.222936 -174.352020 3.415283 -2.707097 -7.261237 -1.250843 -2.897087 3.788199 0.000000 0.000000 0.000000 -4.283407 -0.604972 -13.494947 10.328218 6.603335 -52.624596 1.456670 17.732201 -4.326490 -7.869580 -7.496900 -31.690901 0.000000 -21.435699 0.000000 30.807199 7.649540 19.670300 6.798490 -12.067400 -1.557440 6.973420 3.284200 -37.893501 0.000000 21.859600 0.000000 -19.772100 -3.405830 27.111500 5.037565 -0.059461 -4.370772 0.000000 0.000000 6.417310 -6.221968 -1.041373 6.905176 0.000000 0.000000 -20.188920 1.913801 7.916403 -2.939487 0.000000 0.000000 6.322840 7.751940 -5.817871 9.558141 0.000000 0.000000 -28.099000 
-18.949403 9.217481 43.901326 -175.604454 -2.230411 -174.372517 3.413077 -2.716365 -7.245955 -1.242695 -2.905845 3.794947 0.000000 0.000000 0.000000 -4.295150 -0.603637 -13.486318 10.339220 6.595490 -52.618930 1.438110 17.734900 -4.305350 -7.881260 -7.522740 -31.837500 0.000000 -21.429701 0.000000 30.803101 7.593450 19.772100 6.811050 -12.052700 -1.561340 6.981490 3.282270 -37.872898 0.000000 21.831301 0.000000 -19.750700 -3.270230 27.122700 5.040096 -0.056517 -4.356712 0.000000 0.000000 6.424420 -6.226655 -1.053911 6.900823 0.000000 0.000000 -20.184670 1.917933 7.910527 -2.917001 0.000000 0.000000 6.321410 7.780193 -5.812382 9.546194 0.000000 0.000000 -28.073500 
-18.948930 9.217385 43.901834 -175.606930 -2.232724 -174.394256 3.396320 -2.720421 -7.234727 -1.214022 -2.906073 3.807353 0.000000 0.000000 0.000000 -4.313510 -0.602909 -13.449695 10.333422 6.592147 -52.616793 1.430580 17.691500 -4.302360 -7.907560 -7.445900 -31.619801 0.000000 -21.495001 0.000000 30.725500 7.611260 19.734400 6.802590 -12.031500 -1.540080 7.021650 3.298830 -37.785099 0.000000 21.825500 0.000000 -19.812700 -3.465660 27.089199 5.040185 -0.086097 -4.347005 0.000000 0.000000 6.440390 -6.226866 -1.026416 6.894091 0.000000 0.000000 -20.176790 1.920895 7.930333 -2.898261 0.000000 0.000000 6.321670 7.753511 -5.839201 9.548072 0.000000 0.000000 -28.076500 
-18.948804 9.217326 43.901948 -175.603437 -2.225897 -174.430036 3.400149 -2.713811 -7.208668 -1.210117 -2.900099 3.836120 0.000000 0.000000 0.000000 -4.356182 -0.586172 -13.482981 10.372742 6.568836 -52.594447 1.381780 17.667801 -4.290670 -7.825220 -7.420250 -31.547501 0.000000 -21.499500 0.000000 30.504700 7.805230 19.699301 6.793340 -12.074900 -1.532660 7.071530 3.364030 -37.790501 0.000000 21.798800 0.000000 -19.780701 -3.463570 27.127100 5.044442 -0.098505 -4.308696 0.000000 0.000000 6.437110 -6.233988 -1.016387 6.890479 0.000000 0.000000 -20.182540 1.928671 7.934192 -2.865675 0.000000 0.000000 6.327380 7.775819 -5.826468 9.541570 0.000000 0.000000 -28.059800 
-18.948527 9.217250 43.902096 -175.602635 -2.221856 -174.433582 3.406170 -2.707120 -7.202771 -1.222928 -2.894960 3.830315 0.000000 0.000000 0.000000 -4.358884 -0.583483 -13.482762 10.382445 6.564796 -52.582339 1.371680 17.661900 -4.258870 -7.791900 -7.440730 -31.560499 0.000000 -21.464199 0.000000 30.513500 7.820900 19.687599 6.794360 -12.084300 -1.515350 7.099850 3.366310 -37.764900 0.000000 21.798300 0.000000 -19.761000 -3.467170 27.194700 5.046422 -0.080303 -4.302974 0.000000 0.000000 6.432010 -6.236952 -1.030991 6.890451 0.000000 0.000000 -20.188800 1.930456 7.937129 -2.865594 0.000000 0.000000 6.331020 7.772699 -5.824703 9.536251 0.000000 0.000000 -28.066500 
-18.948061 9.217293 43.901916 -175.602106 -2.215866 -174.433137 3.399346 -2.708367 -7.221489 -1.220649 -2.894353 3.844732 0.000000 0.000000 0.000000 -4.347641 -0.588417 -13.450691 10.353340 6.580919 -52.599219 1.401900 17.650999 -4.264440 -7.846600 -7.447890 -31.565201 0.000000 -21.407000 0.000000 30.785700 7.635080 19.761299 6.811120 -12.062100 -1.518260 7.102900 3.358900 -37.758301 0.000000 21.781300 0.000000 -19.704100 -3.404940 27.202900 5.048795 -0.066679 -4.292703 0.000000 0.000000 6.415520 -6.242223 -1.037331 6.896706 0.000000 0.000000 -20.185540 1.933429 7.917718 -2.866247 0.000000 0.000000 6.328820 7.757227 -5.809178 9.550150 0.000000 0.000000 -28.080100 
